solid ASCII
  facet normal 1.000000e+00 -4.073778e-13 -5.968559e-13
    outer loop
      vertex   6.600000e+01 3.000000e+00 2.500000e+00
      vertex   6.600000e+01 0.000000e+00 2.500000e+00
      vertex   6.600000e+01 3.000000e+00 5.000000e-01
    endloop
  endfacet
  facet normal 1.000000e+00 2.300805e-15 1.766206e-14
    outer loop
      vertex   6.600000e+01 3.000000e+00 5.000000e-01
      vertex   6.600000e+01 0.000000e+00 2.500000e+00
      vertex   6.600000e+01 0.000000e+00 -6.750000e+01
    endloop
  endfacet
  facet normal 1.000000e+00 2.440248e-15 1.765591e-14
    outer loop
      vertex   6.600000e+01 3.000000e+00 5.000000e-01
      vertex   6.600000e+01 0.000000e+00 -6.750000e+01
      vertex   6.600000e+01 3.000000e+00 -6.550000e+01
    endloop
  endfacet
  facet normal 1.000000e+00 0.000000e+00 2.131628e-14
    outer loop
      vertex   6.600000e+01 3.000000e+00 -6.550000e+01
      vertex   6.600000e+01 0.000000e+00 -6.750000e+01
      vertex   6.600000e+01 3.000000e+00 -6.750000e+01
    endloop
  endfacet
  facet normal -0.000000e+00 -1.000000e+00 -0.000000e+00
    outer loop
      vertex   8.600000e+01 3.000000e+00 -6.550000e+01
      vertex   6.600000e+01 3.000000e+00 -6.550000e+01
      vertex   8.600000e+01 3.000000e+00 -6.750000e+01
    endloop
  endfacet
  facet normal 0.000000e+00 -1.000000e+00 0.000000e+00
    outer loop
      vertex   8.600000e+01 3.000000e+00 -6.750000e+01
      vertex   6.600000e+01 3.000000e+00 -6.550000e+01
      vertex   6.600000e+01 3.000000e+00 -6.750000e+01
    endloop
  endfacet
  facet normal -1.000000e+00 -0.000000e+00 -7.105427e-15
    outer loop
      vertex   8.600000e+01 3.000000e+00 -6.750000e+01
      vertex   8.600000e+01 0.000000e+00 -6.750000e+01
      vertex   8.600000e+01 3.000000e+00 -6.550000e+01
    endloop
  endfacet
  facet normal -1.000000e+00 -4.601610e-15 -2.030122e-16
    outer loop
      vertex   8.600000e+01 3.000000e+00 -6.550000e+01
      vertex   8.600000e+01 0.000000e+00 -6.750000e+01
      vertex   8.600000e+01 0.000000e+00 2.500000e+00
    endloop
  endfacet
  facet normal -1.000000e+00 -4.880496e-15 -2.153160e-16
    outer loop
      vertex   8.600000e+01 3.000000e+00 -6.550000e+01
      vertex   8.600000e+01 0.000000e+00 2.500000e+00
      vertex   8.600000e+01 3.000000e+00 5.000000e-01
    endloop
  endfacet
  facet normal -1.000000e+00 0.000000e+00 7.105427e-15
    outer loop
      vertex   8.600000e+01 3.000000e+00 5.000000e-01
      vertex   8.600000e+01 0.000000e+00 2.500000e+00
      vertex   8.600000e+01 3.000000e+00 2.500000e+00
    endloop
  endfacet
  facet normal 0.000000e+00 -1.000000e+00 0.000000e+00
    outer loop
      vertex   6.600000e+01 3.000000e+00 5.000000e-01
      vertex   8.600000e+01 3.000000e+00 5.000000e-01
      vertex   6.600000e+01 3.000000e+00 2.500000e+00
    endloop
  endfacet
  facet normal 0.000000e+00 -1.000000e+00 0.000000e+00
    outer loop
      vertex   6.600000e+01 3.000000e+00 2.500000e+00
      vertex   8.600000e+01 3.000000e+00 5.000000e-01
      vertex   8.600000e+01 3.000000e+00 2.500000e+00
    endloop
  endfacet
  facet normal 0.000000e+00 0.000000e+00 -1.000000e+00
    outer loop
      vertex   8.600000e+01 0.000000e+00 -6.750000e+01
      vertex   8.600000e+01 3.000000e+00 -6.750000e+01
      vertex   1.545000e+02 0.000000e+00 -6.750000e+01
    endloop
  endfacet
  facet normal 0.000000e+00 0.000000e+00 -1.000000e+00
    outer loop
      vertex   1.545000e+02 0.000000e+00 -6.750000e+01
      vertex   8.600000e+01 3.000000e+00 -6.750000e+01
      vertex   1.545000e+02 1.300000e+01 -6.750000e+01
    endloop
  endfacet
  facet normal 0.000000e+00 0.000000e+00 -1.000000e+00
    outer loop
      vertex   1.545000e+02 1.300000e+01 -6.750000e+01
      vertex   8.600000e+01 3.000000e+00 -6.750000e+01
      vertex   6.600000e+01 3.000000e+00 -6.750000e+01
    endloop
  endfacet
  facet normal -0.000000e+00 0.000000e+00 -1.000000e+00
    outer loop
      vertex   1.545000e+02 1.300000e+01 -6.750000e+01
      vertex   6.600000e+01 3.000000e+00 -6.750000e+01
      vertex   -2.500000e+00 1.300000e+01 -6.750000e+01
    endloop
  endfacet
  facet normal 0.000000e+00 0.000000e+00 -1.000000e+00
    outer loop
      vertex   -2.500000e+00 1.300000e+01 -6.750000e+01
      vertex   6.600000e+01 3.000000e+00 -6.750000e+01
      vertex   -2.500000e+00 0.000000e+00 -6.750000e+01
    endloop
  endfacet
  facet normal 0.000000e+00 0.000000e+00 -1.000000e+00
    outer loop
      vertex   -2.500000e+00 0.000000e+00 -6.750000e+01
      vertex   6.600000e+01 3.000000e+00 -6.750000e+01
      vertex   6.600000e+01 0.000000e+00 -6.750000e+01
    endloop
  endfacet
  facet normal -0.000000e+00 -1.000000e+00 -0.000000e+00
    outer loop
      vertex   6.600000e+01 0.000000e+00 2.500000e+00
      vertex   -2.500000e+00 0.000000e+00 2.500000e+00
      vertex   6.600000e+01 0.000000e+00 -6.750000e+01
    endloop
  endfacet
  facet normal 0.000000e+00 -1.000000e+00 0.000000e+00
    outer loop
      vertex   6.600000e+01 0.000000e+00 -6.750000e+01
      vertex   -2.500000e+00 0.000000e+00 2.500000e+00
      vertex   -2.500000e+00 0.000000e+00 -6.750000e+01
    endloop
  endfacet
  facet normal 0.000000e+00 1.000000e+00 -0.000000e+00
    outer loop
      vertex   8.600000e+01 3.000000e+00 -6.550000e+01
      vertex   8.600000e+01 3.000000e+00 5.000000e-01
      vertex   1.525000e+02 3.000000e+00 -6.550000e+01
    endloop
  endfacet
  facet normal 0.000000e+00 1.000000e+00 -0.000000e+00
    outer loop
      vertex   1.525000e+02 3.000000e+00 -6.550000e+01
      vertex   8.600000e+01 3.000000e+00 5.000000e-01
      vertex   1.525000e+02 3.000000e+00 5.000000e-01
    endloop
  endfacet
  facet normal 0.000000e+00 1.000000e+00 0.000000e+00
    outer loop
      vertex   6.600000e+01 3.000000e+00 5.000000e-01
      vertex   6.600000e+01 3.000000e+00 -6.550000e+01
      vertex   -5.000000e-01 3.000000e+00 5.000000e-01
    endloop
  endfacet
  facet normal 0.000000e+00 1.000000e+00 0.000000e+00
    outer loop
      vertex   -5.000000e-01 3.000000e+00 5.000000e-01
      vertex   6.600000e+01 3.000000e+00 -6.550000e+01
      vertex   -5.000000e-01 3.000000e+00 -6.550000e+01
    endloop
  endfacet
  facet normal -1.000000e+00 0.000000e+00 0.000000e+00
    outer loop
      vertex   1.525000e+02 3.000000e+00 -6.550000e+01
      vertex   1.525000e+02 3.000000e+00 5.000000e-01
      vertex   1.525000e+02 1.300000e+01 -6.550000e+01
    endloop
  endfacet
  facet normal -1.000000e+00 0.000000e+00 0.000000e+00
    outer loop
      vertex   1.525000e+02 1.300000e+01 -6.550000e+01
      vertex   1.525000e+02 3.000000e+00 5.000000e-01
      vertex   1.525000e+02 1.300000e+01 5.000000e-01
    endloop
  endfacet
  facet normal 0.000000e+00 0.000000e+00 -1.000000e+00
    outer loop
      vertex   -5.000000e-01 3.000000e+00 5.000000e-01
      vertex   -5.000000e-01 1.300000e+01 5.000000e-01
      vertex   6.600000e+01 3.000000e+00 5.000000e-01
    endloop
  endfacet
  facet normal 0.000000e+00 0.000000e+00 -1.000000e+00
    outer loop
      vertex   6.600000e+01 3.000000e+00 5.000000e-01
      vertex   -5.000000e-01 1.300000e+01 5.000000e-01
      vertex   1.525000e+02 1.300000e+01 5.000000e-01
    endloop
  endfacet
  facet normal 0.000000e+00 0.000000e+00 -1.000000e+00
    outer loop
      vertex   6.600000e+01 3.000000e+00 5.000000e-01
      vertex   1.525000e+02 1.300000e+01 5.000000e-01
      vertex   8.600000e+01 3.000000e+00 5.000000e-01
    endloop
  endfacet
  facet normal 0.000000e+00 0.000000e+00 -1.000000e+00
    outer loop
      vertex   8.600000e+01 3.000000e+00 5.000000e-01
      vertex   1.525000e+02 1.300000e+01 5.000000e-01
      vertex   1.525000e+02 3.000000e+00 5.000000e-01
    endloop
  endfacet
  facet normal 0.000000e+00 -0.000000e+00 1.000000e+00
    outer loop
      vertex   1.525000e+02 3.000000e+00 -6.550000e+01
      vertex   1.525000e+02 1.300000e+01 -6.550000e+01
      vertex   8.600000e+01 3.000000e+00 -6.550000e+01
    endloop
  endfacet
  facet normal 0.000000e+00 -0.000000e+00 1.000000e+00
    outer loop
      vertex   8.600000e+01 3.000000e+00 -6.550000e+01
      vertex   1.525000e+02 1.300000e+01 -6.550000e+01
      vertex   -5.000000e-01 1.300000e+01 -6.550000e+01
    endloop
  endfacet
  facet normal 0.000000e+00 0.000000e+00 1.000000e+00
    outer loop
      vertex   8.600000e+01 3.000000e+00 -6.550000e+01
      vertex   -5.000000e-01 1.300000e+01 -6.550000e+01
      vertex   6.600000e+01 3.000000e+00 -6.550000e+01
    endloop
  endfacet
  facet normal 0.000000e+00 0.000000e+00 1.000000e+00
    outer loop
      vertex   6.600000e+01 3.000000e+00 -6.550000e+01
      vertex   -5.000000e-01 1.300000e+01 -6.550000e+01
      vertex   -5.000000e-01 3.000000e+00 -6.550000e+01
    endloop
  endfacet
  facet normal 1.000000e+00 3.552714e-16 1.059758e-16
    outer loop
      vertex   -5.000000e-01 3.000000e+00 5.000000e-01
      vertex   -5.000000e-01 3.000000e+00 -6.550000e+01
      vertex   -5.000000e-01 1.300000e+01 5.000000e-01
    endloop
  endfacet
  facet normal 1.000000e+00 0.000000e+00 1.598048e-16
    outer loop
      vertex   -5.000000e-01 1.300000e+01 5.000000e-01
      vertex   -5.000000e-01 3.000000e+00 -6.550000e+01
      vertex   -5.000000e-01 1.300000e+01 -6.550000e+01
    endloop
  endfacet
  facet normal 1.000000e+00 -0.000000e+00 0.000000e+00
    outer loop
      vertex   1.545000e+02 0.000000e+00 2.500000e+00
      vertex   1.545000e+02 0.000000e+00 -6.750000e+01
      vertex   1.545000e+02 1.300000e+01 2.500000e+00
    endloop
  endfacet
  facet normal 1.000000e+00 0.000000e+00 0.000000e+00
    outer loop
      vertex   1.545000e+02 1.300000e+01 2.500000e+00
      vertex   1.545000e+02 0.000000e+00 -6.750000e+01
      vertex   1.545000e+02 1.300000e+01 -6.750000e+01
    endloop
  endfacet
  facet normal 1.296611e-17 -0.000000e+00 1.000000e+00
    outer loop
      vertex   8.600000e+01 0.000000e+00 2.500000e+00
      vertex   1.545000e+02 0.000000e+00 2.500000e+00
      vertex   8.600000e+01 3.000000e+00 2.500000e+00
    endloop
  endfacet
  facet normal 1.296611e-17 0.000000e+00 1.000000e+00
    outer loop
      vertex   8.600000e+01 3.000000e+00 2.500000e+00
      vertex   1.545000e+02 0.000000e+00 2.500000e+00
      vertex   1.545000e+02 1.300000e+01 2.500000e+00
    endloop
  endfacet
  facet normal 1.414297e-17 -8.061492e-18 1.000000e+00
    outer loop
      vertex   8.600000e+01 3.000000e+00 2.500000e+00
      vertex   1.545000e+02 1.300000e+01 2.500000e+00
      vertex   -2.500000e+00 1.300000e+01 2.500000e+00
    endloop
  endfacet
  facet normal 2.220446e-17 6.328271e-17 1.000000e+00
    outer loop
      vertex   8.600000e+01 3.000000e+00 2.500000e+00
      vertex   -2.500000e+00 1.300000e+01 2.500000e+00
      vertex   6.600000e+01 3.000000e+00 2.500000e+00
    endloop
  endfacet
  facet normal 1.296611e-17 0.000000e+00 1.000000e+00
    outer loop
      vertex   6.600000e+01 3.000000e+00 2.500000e+00
      vertex   -2.500000e+00 1.300000e+01 2.500000e+00
      vertex   -2.500000e+00 0.000000e+00 2.500000e+00
    endloop
  endfacet
  facet normal 1.296611e-17 -5.282105e-30 1.000000e+00
    outer loop
      vertex   6.600000e+01 3.000000e+00 2.500000e+00
      vertex   -2.500000e+00 0.000000e+00 2.500000e+00
      vertex   6.600000e+01 0.000000e+00 2.500000e+00
    endloop
  endfacet
  facet normal -1.000000e+00 0.000000e+00 -3.425831e-16
    outer loop
      vertex   -2.500000e+00 0.000000e+00 -6.750000e+01
      vertex   -2.500000e+00 0.000000e+00 2.500000e+00
      vertex   -2.500000e+00 1.300000e+01 -6.750000e+01
    endloop
  endfacet
  facet normal -1.000000e+00 0.000000e+00 -3.425831e-16
    outer loop
      vertex   -2.500000e+00 1.300000e+01 -6.750000e+01
      vertex   -2.500000e+00 0.000000e+00 2.500000e+00
      vertex   -2.500000e+00 1.300000e+01 2.500000e+00
    endloop
  endfacet
  facet normal 0.000000e+00 1.000000e+00 -0.000000e+00
    outer loop
      vertex   -5.000000e-01 1.300000e+01 5.000000e-01
      vertex   -2.500000e+00 1.300000e+01 2.500000e+00
      vertex   1.525000e+02 1.300000e+01 5.000000e-01
    endloop
  endfacet
  facet normal 0.000000e+00 1.000000e+00 -0.000000e+00
    outer loop
      vertex   1.525000e+02 1.300000e+01 5.000000e-01
      vertex   -2.500000e+00 1.300000e+01 2.500000e+00
      vertex   1.545000e+02 1.300000e+01 2.500000e+00
    endloop
  endfacet
  facet normal -0.000000e+00 1.000000e+00 0.000000e+00
    outer loop
      vertex   1.525000e+02 1.300000e+01 5.000000e-01
      vertex   1.545000e+02 1.300000e+01 2.500000e+00
      vertex   1.545000e+02 1.300000e+01 -6.750000e+01
    endloop
  endfacet
  facet normal 0.000000e+00 1.000000e+00 0.000000e+00
    outer loop
      vertex   -5.000000e-01 1.300000e+01 5.000000e-01
      vertex   -5.000000e-01 1.300000e+01 -6.550000e+01
      vertex   -2.500000e+00 1.300000e+01 2.500000e+00
    endloop
  endfacet
  facet normal 0.000000e+00 1.000000e+00 0.000000e+00
    outer loop
      vertex   -2.500000e+00 1.300000e+01 2.500000e+00
      vertex   -5.000000e-01 1.300000e+01 -6.550000e+01
      vertex   -2.500000e+00 1.300000e+01 -6.750000e+01
    endloop
  endfacet
  facet normal 0.000000e+00 1.000000e+00 0.000000e+00
    outer loop
      vertex   -2.500000e+00 1.300000e+01 -6.750000e+01
      vertex   -5.000000e-01 1.300000e+01 -6.550000e+01
      vertex   1.525000e+02 1.300000e+01 -6.550000e+01
    endloop
  endfacet
  facet normal 0.000000e+00 1.000000e+00 0.000000e+00
    outer loop
      vertex   -2.500000e+00 1.300000e+01 -6.750000e+01
      vertex   1.525000e+02 1.300000e+01 -6.550000e+01
      vertex   1.545000e+02 1.300000e+01 -6.750000e+01
    endloop
  endfacet
  facet normal 0.000000e+00 1.000000e+00 0.000000e+00
    outer loop
      vertex   1.545000e+02 1.300000e+01 -6.750000e+01
      vertex   1.525000e+02 1.300000e+01 -6.550000e+01
      vertex   1.525000e+02 1.300000e+01 5.000000e-01
    endloop
  endfacet
  facet normal 0.000000e+00 -1.000000e+00 0.000000e+00
    outer loop
      vertex   8.600000e+01 0.000000e+00 -6.750000e+01
      vertex   1.545000e+02 0.000000e+00 -6.750000e+01
      vertex   8.600000e+01 0.000000e+00 2.500000e+00
    endloop
  endfacet
  facet normal 0.000000e+00 -1.000000e+00 0.000000e+00
    outer loop
      vertex   8.600000e+01 0.000000e+00 2.500000e+00
      vertex   1.545000e+02 0.000000e+00 -6.750000e+01
      vertex   1.545000e+02 0.000000e+00 2.500000e+00
    endloop
  endfacet
endsolid
