solid ASCII
  facet normal 0.000000e+00 0.000000e+00 1.000000e+00
    outer loop
      vertex   9.000000e+01 0.000000e+00 2.000000e+00
      vertex   0.000000e+00 0.000000e+00 2.000000e+00
      vertex   9.000000e+01 -2.800000e+01 2.000000e+00
    endloop
  endfacet
  facet normal 0.000000e+00 0.000000e+00 1.000000e+00
    outer loop
      vertex   9.000000e+01 -2.800000e+01 2.000000e+00
      vertex   0.000000e+00 0.000000e+00 2.000000e+00
      vertex   0.000000e+00 -2.800000e+01 2.000000e+00
    endloop
  endfacet
  facet normal 0.000000e+00 -1.000000e+00 0.000000e+00
    outer loop
      vertex   0.000000e+00 -2.800000e+01 2.000000e+00
      vertex   0.000000e+00 -2.800000e+01 0.000000e+00
      vertex   9.000000e+01 -2.800000e+01 2.000000e+00
    endloop
  endfacet
  facet normal 0.000000e+00 -1.000000e+00 -0.000000e+00
    outer loop
      vertex   9.000000e+01 -2.800000e+01 2.000000e+00
      vertex   0.000000e+00 -2.800000e+01 0.000000e+00
      vertex   9.000000e+01 -2.800000e+01 0.000000e+00
    endloop
  endfacet
  facet normal 0.000000e+00 -1.000000e+00 0.000000e+00
    outer loop
      vertex   9.000000e+01 0.000000e+00 2.000000e+00
      vertex   3.950000e+01 0.000000e+00 1.175000e+01
      vertex   0.000000e+00 0.000000e+00 2.000000e+00
    endloop
  endfacet
  facet normal 0.000000e+00 -1.000000e+00 0.000000e+00
    outer loop
      vertex   0.000000e+00 0.000000e+00 2.000000e+00
      vertex   3.950000e+01 0.000000e+00 1.175000e+01
      vertex   1.957871e+01 0.000000e+00 2.140408e+01
    endloop
  endfacet
  facet normal 0.000000e+00 -1.000000e+00 0.000000e+00
    outer loop
      vertex   0.000000e+00 0.000000e+00 2.000000e+00
      vertex   1.957871e+01 0.000000e+00 2.140408e+01
      vertex   1.890127e+01 0.000000e+00 2.150148e+01
    endloop
  endfacet
  facet normal 0.000000e+00 -1.000000e+00 -0.000000e+00
    outer loop
      vertex   9.000000e+01 0.000000e+00 5.000000e+01
      vertex   8.500000e+01 0.000000e+00 3.825000e+01
      vertex   9.000000e+01 0.000000e+00 2.000000e+00
    endloop
  endfacet
  facet normal 0.000000e+00 -1.000000e+00 0.000000e+00
    outer loop
      vertex   9.000000e+01 0.000000e+00 2.000000e+00
      vertex   8.500000e+01 0.000000e+00 3.825000e+01
      vertex   8.500000e+01 0.000000e+00 1.175000e+01
    endloop
  endfacet
  facet normal 0.000000e+00 -1.000000e+00 0.000000e+00
    outer loop
      vertex   9.000000e+01 0.000000e+00 2.000000e+00
      vertex   8.500000e+01 0.000000e+00 1.175000e+01
      vertex   3.950000e+01 0.000000e+00 1.175000e+01
    endloop
  endfacet
  facet normal -0.000000e+00 -1.000000e+00 0.000000e+00
    outer loop
      vertex   8.500000e+01 0.000000e+00 3.825000e+01
      vertex   9.000000e+01 0.000000e+00 5.000000e+01
      vertex   3.950000e+01 0.000000e+00 3.825000e+01
    endloop
  endfacet
  facet normal 0.000000e+00 -1.000000e+00 0.000000e+00
    outer loop
      vertex   3.950000e+01 0.000000e+00 3.825000e+01
      vertex   9.000000e+01 0.000000e+00 5.000000e+01
      vertex   2.465190e-31 0.000000e+00 5.000000e+01
    endloop
  endfacet
  facet normal -0.000000e+00 -1.000000e+00 0.000000e+00
    outer loop
      vertex   3.950000e+01 0.000000e+00 3.825000e+01
      vertex   2.465190e-31 0.000000e+00 5.000000e+01
      vertex   1.957871e+01 0.000000e+00 2.859592e+01
    endloop
  endfacet
  facet normal -0.000000e+00 -1.000000e+00 0.000000e+00
    outer loop
      vertex   1.957871e+01 0.000000e+00 2.859592e+01
      vertex   2.465190e-31 0.000000e+00 5.000000e+01
      vertex   1.890127e+01 0.000000e+00 2.849852e+01
    endloop
  endfacet
  facet normal -0.000000e+00 -1.000000e+00 0.000000e+00
    outer loop
      vertex   1.890127e+01 0.000000e+00 2.849852e+01
      vertex   2.465190e-31 0.000000e+00 5.000000e+01
      vertex   1.825451e+01 0.000000e+00 2.827468e+01
    endloop
  endfacet
  facet normal -0.000000e+00 -1.000000e+00 0.000000e+00
    outer loop
      vertex   1.825451e+01 0.000000e+00 2.827468e+01
      vertex   2.465190e-31 0.000000e+00 5.000000e+01
      vertex   1.766180e+01 0.000000e+00 2.793247e+01
    endloop
  endfacet
  facet normal -0.000000e+00 -1.000000e+00 0.000000e+00
    outer loop
      vertex   1.766180e+01 0.000000e+00 2.793247e+01
      vertex   2.465190e-31 0.000000e+00 5.000000e+01
      vertex   1.714456e+01 0.000000e+00 2.748428e+01
    endloop
  endfacet
  facet normal -0.000000e+00 -1.000000e+00 0.000000e+00
    outer loop
      vertex   1.714456e+01 0.000000e+00 2.748428e+01
      vertex   2.465190e-31 0.000000e+00 5.000000e+01
      vertex   1.672149e+01 0.000000e+00 2.694631e+01
    endloop
  endfacet
  facet normal -0.000000e+00 -1.000000e+00 0.000000e+00
    outer loop
      vertex   1.672149e+01 0.000000e+00 2.694631e+01
      vertex   2.465190e-31 0.000000e+00 5.000000e+01
      vertex   1.640788e+01 0.000000e+00 2.633798e+01
    endloop
  endfacet
  facet normal -0.000000e+00 -1.000000e+00 0.000000e+00
    outer loop
      vertex   1.640788e+01 0.000000e+00 2.633798e+01
      vertex   2.465190e-31 0.000000e+00 5.000000e+01
      vertex   1.621506e+01 0.000000e+00 2.568130e+01
    endloop
  endfacet
  facet normal -0.000000e+00 -1.000000e+00 0.000000e+00
    outer loop
      vertex   1.621506e+01 0.000000e+00 2.568130e+01
      vertex   2.465190e-31 0.000000e+00 5.000000e+01
      vertex   1.615000e+01 0.000000e+00 2.500000e+01
    endloop
  endfacet
  facet normal -0.000000e+00 -1.000000e+00 0.000000e+00
    outer loop
      vertex   1.615000e+01 0.000000e+00 2.500000e+01
      vertex   2.465190e-31 0.000000e+00 5.000000e+01
      vertex   0.000000e+00 0.000000e+00 2.000000e+00
    endloop
  endfacet
  facet normal 0.000000e+00 -1.000000e+00 -0.000000e+00
    outer loop
      vertex   1.615000e+01 0.000000e+00 2.500000e+01
      vertex   0.000000e+00 0.000000e+00 2.000000e+00
      vertex   1.621506e+01 0.000000e+00 2.431870e+01
    endloop
  endfacet
  facet normal 0.000000e+00 -1.000000e+00 -0.000000e+00
    outer loop
      vertex   1.621506e+01 0.000000e+00 2.431870e+01
      vertex   0.000000e+00 0.000000e+00 2.000000e+00
      vertex   1.640788e+01 0.000000e+00 2.366202e+01
    endloop
  endfacet
  facet normal 0.000000e+00 -1.000000e+00 -0.000000e+00
    outer loop
      vertex   1.640788e+01 0.000000e+00 2.366202e+01
      vertex   0.000000e+00 0.000000e+00 2.000000e+00
      vertex   1.672149e+01 0.000000e+00 2.305369e+01
    endloop
  endfacet
  facet normal 0.000000e+00 -1.000000e+00 -0.000000e+00
    outer loop
      vertex   1.672149e+01 0.000000e+00 2.305369e+01
      vertex   0.000000e+00 0.000000e+00 2.000000e+00
      vertex   1.714456e+01 0.000000e+00 2.251572e+01
    endloop
  endfacet
  facet normal 0.000000e+00 -1.000000e+00 -0.000000e+00
    outer loop
      vertex   1.714456e+01 0.000000e+00 2.251572e+01
      vertex   0.000000e+00 0.000000e+00 2.000000e+00
      vertex   1.766180e+01 0.000000e+00 2.206753e+01
    endloop
  endfacet
  facet normal 0.000000e+00 -1.000000e+00 -0.000000e+00
    outer loop
      vertex   1.766180e+01 0.000000e+00 2.206753e+01
      vertex   0.000000e+00 0.000000e+00 2.000000e+00
      vertex   1.825451e+01 0.000000e+00 2.172532e+01
    endloop
  endfacet
  facet normal 0.000000e+00 -1.000000e+00 -0.000000e+00
    outer loop
      vertex   1.825451e+01 0.000000e+00 2.172532e+01
      vertex   0.000000e+00 0.000000e+00 2.000000e+00
      vertex   1.890127e+01 0.000000e+00 2.150148e+01
    endloop
  endfacet
  facet normal 0.000000e+00 -1.000000e+00 0.000000e+00
    outer loop
      vertex   1.957871e+01 0.000000e+00 2.859592e+01
      vertex   2.026233e+01 0.000000e+00 2.856336e+01
      vertex   3.950000e+01 0.000000e+00 3.825000e+01
    endloop
  endfacet
  facet normal 0.000000e+00 -1.000000e+00 0.000000e+00
    outer loop
      vertex   3.950000e+01 0.000000e+00 3.825000e+01
      vertex   2.026233e+01 0.000000e+00 2.856336e+01
      vertex   2.092744e+01 0.000000e+00 2.840200e+01
    endloop
  endfacet
  facet normal 0.000000e+00 -1.000000e+00 0.000000e+00
    outer loop
      vertex   3.950000e+01 0.000000e+00 3.825000e+01
      vertex   2.092744e+01 0.000000e+00 2.840200e+01
      vertex   2.155000e+01 0.000000e+00 2.811769e+01
    endloop
  endfacet
  facet normal 0.000000e+00 -1.000000e+00 0.000000e+00
    outer loop
      vertex   2.155000e+01 0.000000e+00 2.811769e+01
      vertex   2.210750e+01 0.000000e+00 2.772070e+01
      vertex   3.950000e+01 0.000000e+00 3.825000e+01
    endloop
  endfacet
  facet normal 0.000000e+00 -1.000000e+00 0.000000e+00
    outer loop
      vertex   3.950000e+01 0.000000e+00 3.825000e+01
      vertex   2.210750e+01 0.000000e+00 2.772070e+01
      vertex   2.257979e+01 0.000000e+00 2.722537e+01
    endloop
  endfacet
  facet normal 0.000000e+00 -1.000000e+00 0.000000e+00
    outer loop
      vertex   3.950000e+01 0.000000e+00 3.825000e+01
      vertex   2.257979e+01 0.000000e+00 2.722537e+01
      vertex   2.294981e+01 0.000000e+00 2.664962e+01
    endloop
  endfacet
  facet normal 0.000000e+00 -1.000000e+00 0.000000e+00
    outer loop
      vertex   2.294981e+01 0.000000e+00 2.664962e+01
      vertex   2.320417e+01 0.000000e+00 2.601424e+01
      vertex   3.950000e+01 0.000000e+00 3.825000e+01
    endloop
  endfacet
  facet normal 0.000000e+00 -1.000000e+00 0.000000e+00
    outer loop
      vertex   3.950000e+01 0.000000e+00 3.825000e+01
      vertex   2.320417e+01 0.000000e+00 2.601424e+01
      vertex   2.333370e+01 0.000000e+00 2.534220e+01
    endloop
  endfacet
  facet normal 0.000000e+00 -1.000000e+00 0.000000e+00
    outer loop
      vertex   3.950000e+01 0.000000e+00 3.825000e+01
      vertex   2.333370e+01 0.000000e+00 2.534220e+01
      vertex   2.333370e+01 0.000000e+00 2.465780e+01
    endloop
  endfacet
  facet normal 0.000000e+00 -1.000000e+00 -0.000000e+00
    outer loop
      vertex   3.950000e+01 0.000000e+00 3.825000e+01
      vertex   2.333370e+01 0.000000e+00 2.465780e+01
      vertex   3.950000e+01 0.000000e+00 1.175000e+01
    endloop
  endfacet
  facet normal 0.000000e+00 -1.000000e+00 0.000000e+00
    outer loop
      vertex   3.950000e+01 0.000000e+00 1.175000e+01
      vertex   2.333370e+01 0.000000e+00 2.465780e+01
      vertex   2.320417e+01 0.000000e+00 2.398576e+01
    endloop
  endfacet
  facet normal 0.000000e+00 -1.000000e+00 0.000000e+00
    outer loop
      vertex   3.950000e+01 0.000000e+00 1.175000e+01
      vertex   2.320417e+01 0.000000e+00 2.398576e+01
      vertex   2.294981e+01 0.000000e+00 2.335038e+01
    endloop
  endfacet
  facet normal 0.000000e+00 -1.000000e+00 -0.000000e+00
    outer loop
      vertex   2.294981e+01 0.000000e+00 2.335038e+01
      vertex   2.257979e+01 0.000000e+00 2.277463e+01
      vertex   3.950000e+01 0.000000e+00 1.175000e+01
    endloop
  endfacet
  facet normal 0.000000e+00 -1.000000e+00 0.000000e+00
    outer loop
      vertex   3.950000e+01 0.000000e+00 1.175000e+01
      vertex   2.257979e+01 0.000000e+00 2.277463e+01
      vertex   2.210750e+01 0.000000e+00 2.227930e+01
    endloop
  endfacet
  facet normal 0.000000e+00 -1.000000e+00 0.000000e+00
    outer loop
      vertex   3.950000e+01 0.000000e+00 1.175000e+01
      vertex   2.210750e+01 0.000000e+00 2.227930e+01
      vertex   2.155000e+01 0.000000e+00 2.188231e+01
    endloop
  endfacet
  facet normal 0.000000e+00 -1.000000e+00 -0.000000e+00
    outer loop
      vertex   2.155000e+01 0.000000e+00 2.188231e+01
      vertex   2.092744e+01 0.000000e+00 2.159800e+01
      vertex   3.950000e+01 0.000000e+00 1.175000e+01
    endloop
  endfacet
  facet normal 0.000000e+00 -1.000000e+00 0.000000e+00
    outer loop
      vertex   3.950000e+01 0.000000e+00 1.175000e+01
      vertex   2.092744e+01 0.000000e+00 2.159800e+01
      vertex   2.026233e+01 0.000000e+00 2.143664e+01
    endloop
  endfacet
  facet normal 0.000000e+00 -1.000000e+00 0.000000e+00
    outer loop
      vertex   3.950000e+01 0.000000e+00 1.175000e+01
      vertex   2.026233e+01 0.000000e+00 2.143664e+01
      vertex   1.957871e+01 0.000000e+00 2.140408e+01
    endloop
  endfacet
  facet normal 9.954719e-01 0.000000e+00 -9.505604e-02
    outer loop
      vertex   1.621506e+01 2.000000e+00 2.568130e+01
      vertex   1.621506e+01 0.000000e+00 2.568130e+01
      vertex   1.615000e+01 2.000000e+00 2.500000e+01
    endloop
  endfacet
  facet normal 9.954719e-01 0.000000e+00 -9.505604e-02
    outer loop
      vertex   1.615000e+01 2.000000e+00 2.500000e+01
      vertex   1.621506e+01 0.000000e+00 2.568130e+01
      vertex   1.615000e+01 0.000000e+00 2.500000e+01
    endloop
  endfacet
  facet normal 9.954719e-01 0.000000e+00 9.505604e-02
    outer loop
      vertex   1.615000e+01 2.000000e+00 2.500000e+01
      vertex   1.615000e+01 0.000000e+00 2.500000e+01
      vertex   1.621506e+01 2.000000e+00 2.431870e+01
    endloop
  endfacet
  facet normal 9.954719e-01 0.000000e+00 9.505604e-02
    outer loop
      vertex   1.621506e+01 2.000000e+00 2.431870e+01
      vertex   1.615000e+01 0.000000e+00 2.500000e+01
      vertex   1.621506e+01 0.000000e+00 2.431870e+01
    endloop
  endfacet
  facet normal 9.594930e-01 0.000000e+00 2.817326e-01
    outer loop
      vertex   1.621506e+01 2.000000e+00 2.431870e+01
      vertex   1.621506e+01 0.000000e+00 2.431870e+01
      vertex   1.640788e+01 2.000000e+00 2.366202e+01
    endloop
  endfacet
  facet normal 9.594930e-01 0.000000e+00 2.817326e-01
    outer loop
      vertex   1.640788e+01 2.000000e+00 2.366202e+01
      vertex   1.621506e+01 0.000000e+00 2.431870e+01
      vertex   1.640788e+01 0.000000e+00 2.366202e+01
    endloop
  endfacet
  facet normal 8.888354e-01 0.000000e+00 4.582265e-01
    outer loop
      vertex   1.640788e+01 2.000000e+00 2.366202e+01
      vertex   1.640788e+01 0.000000e+00 2.366202e+01
      vertex   1.672149e+01 2.000000e+00 2.305369e+01
    endloop
  endfacet
  facet normal 8.888354e-01 0.000000e+00 4.582265e-01
    outer loop
      vertex   1.672149e+01 2.000000e+00 2.305369e+01
      vertex   1.640788e+01 0.000000e+00 2.366202e+01
      vertex   1.672149e+01 0.000000e+00 2.305369e+01
    endloop
  endfacet
  facet normal 7.860531e-01 0.000000e+00 6.181590e-01
    outer loop
      vertex   1.672149e+01 2.000000e+00 2.305369e+01
      vertex   1.672149e+01 0.000000e+00 2.305369e+01
      vertex   1.714456e+01 2.000000e+00 2.251572e+01
    endloop
  endfacet
  facet normal 7.860531e-01 0.000000e+00 6.181590e-01
    outer loop
      vertex   1.714456e+01 2.000000e+00 2.251572e+01
      vertex   1.672149e+01 0.000000e+00 2.305369e+01
      vertex   1.714456e+01 0.000000e+00 2.251572e+01
    endloop
  endfacet
  facet normal 6.548607e-01 0.000000e+00 7.557496e-01
    outer loop
      vertex   1.714456e+01 2.000000e+00 2.251572e+01
      vertex   1.714456e+01 0.000000e+00 2.251572e+01
      vertex   1.766180e+01 2.000000e+00 2.206753e+01
    endloop
  endfacet
  facet normal 6.548607e-01 0.000000e+00 7.557496e-01
    outer loop
      vertex   1.766180e+01 2.000000e+00 2.206753e+01
      vertex   1.714456e+01 0.000000e+00 2.251572e+01
      vertex   1.766180e+01 0.000000e+00 2.206753e+01
    endloop
  endfacet
  facet normal 5.000000e-01 0.000000e+00 8.660254e-01
    outer loop
      vertex   1.766180e+01 2.000000e+00 2.206753e+01
      vertex   1.766180e+01 0.000000e+00 2.206753e+01
      vertex   1.825451e+01 2.000000e+00 2.172532e+01
    endloop
  endfacet
  facet normal 5.000000e-01 0.000000e+00 8.660254e-01
    outer loop
      vertex   1.825451e+01 2.000000e+00 2.172532e+01
      vertex   1.766180e+01 0.000000e+00 2.206753e+01
      vertex   1.825451e+01 0.000000e+00 2.172532e+01
    endloop
  endfacet
  facet normal 3.270680e-01 0.000000e+00 9.450008e-01
    outer loop
      vertex   1.825451e+01 2.000000e+00 2.172532e+01
      vertex   1.825451e+01 0.000000e+00 2.172532e+01
      vertex   1.890127e+01 2.000000e+00 2.150148e+01
    endloop
  endfacet
  facet normal 3.270680e-01 0.000000e+00 9.450008e-01
    outer loop
      vertex   1.890127e+01 2.000000e+00 2.150148e+01
      vertex   1.825451e+01 0.000000e+00 2.172532e+01
      vertex   1.890127e+01 0.000000e+00 2.150148e+01
    endloop
  endfacet
  facet normal 1.423148e-01 0.000000e+00 9.898214e-01
    outer loop
      vertex   1.890127e+01 2.000000e+00 2.150148e+01
      vertex   1.890127e+01 0.000000e+00 2.150148e+01
      vertex   1.957871e+01 2.000000e+00 2.140408e+01
    endloop
  endfacet
  facet normal 1.423148e-01 0.000000e+00 9.898214e-01
    outer loop
      vertex   1.957871e+01 2.000000e+00 2.140408e+01
      vertex   1.890127e+01 0.000000e+00 2.150148e+01
      vertex   1.957871e+01 0.000000e+00 2.140408e+01
    endloop
  endfacet
  facet normal -4.758192e-02 0.000000e+00 9.988673e-01
    outer loop
      vertex   1.957871e+01 2.000000e+00 2.140408e+01
      vertex   1.957871e+01 0.000000e+00 2.140408e+01
      vertex   2.026233e+01 2.000000e+00 2.143664e+01
    endloop
  endfacet
  facet normal -4.758192e-02 0.000000e+00 9.988673e-01
    outer loop
      vertex   2.026233e+01 2.000000e+00 2.143664e+01
      vertex   1.957871e+01 0.000000e+00 2.140408e+01
      vertex   2.026233e+01 0.000000e+00 2.143664e+01
    endloop
  endfacet
  facet normal -2.357589e-01 0.000000e+00 9.718116e-01
    outer loop
      vertex   2.026233e+01 2.000000e+00 2.143664e+01
      vertex   2.026233e+01 0.000000e+00 2.143664e+01
      vertex   2.092744e+01 2.000000e+00 2.159800e+01
    endloop
  endfacet
  facet normal -2.357589e-01 0.000000e+00 9.718116e-01
    outer loop
      vertex   2.092744e+01 2.000000e+00 2.159800e+01
      vertex   2.026233e+01 0.000000e+00 2.143664e+01
      vertex   2.092744e+01 0.000000e+00 2.159800e+01
    endloop
  endfacet
  facet normal -4.154150e-01 0.000000e+00 9.096320e-01
    outer loop
      vertex   2.092744e+01 2.000000e+00 2.159800e+01
      vertex   2.092744e+01 0.000000e+00 2.159800e+01
      vertex   2.155000e+01 2.000000e+00 2.188231e+01
    endloop
  endfacet
  facet normal -4.154150e-01 0.000000e+00 9.096320e-01
    outer loop
      vertex   2.155000e+01 2.000000e+00 2.188231e+01
      vertex   2.092744e+01 0.000000e+00 2.159800e+01
      vertex   2.155000e+01 0.000000e+00 2.188231e+01
    endloop
  endfacet
  facet normal -5.800569e-01 0.000000e+00 8.145760e-01
    outer loop
      vertex   2.155000e+01 2.000000e+00 2.188231e+01
      vertex   2.155000e+01 0.000000e+00 2.188231e+01
      vertex   2.210750e+01 2.000000e+00 2.227930e+01
    endloop
  endfacet
  facet normal -5.800569e-01 0.000000e+00 8.145760e-01
    outer loop
      vertex   2.210750e+01 2.000000e+00 2.227930e+01
      vertex   2.155000e+01 0.000000e+00 2.188231e+01
      vertex   2.210750e+01 0.000000e+00 2.227930e+01
    endloop
  endfacet
  facet normal -7.237340e-01 0.000000e+00 6.900790e-01
    outer loop
      vertex   2.210750e+01 2.000000e+00 2.227930e+01
      vertex   2.210750e+01 0.000000e+00 2.227930e+01
      vertex   2.257979e+01 2.000000e+00 2.277463e+01
    endloop
  endfacet
  facet normal -7.237340e-01 0.000000e+00 6.900790e-01
    outer loop
      vertex   2.257979e+01 2.000000e+00 2.277463e+01
      vertex   2.210750e+01 0.000000e+00 2.227930e+01
      vertex   2.257979e+01 0.000000e+00 2.277463e+01
    endloop
  endfacet
  facet normal -8.412535e-01 0.000000e+00 5.406408e-01
    outer loop
      vertex   2.257979e+01 2.000000e+00 2.277463e+01
      vertex   2.257979e+01 0.000000e+00 2.277463e+01
      vertex   2.294981e+01 2.000000e+00 2.335038e+01
    endloop
  endfacet
  facet normal -8.412535e-01 0.000000e+00 5.406408e-01
    outer loop
      vertex   2.294981e+01 2.000000e+00 2.335038e+01
      vertex   2.257979e+01 0.000000e+00 2.277463e+01
      vertex   2.294981e+01 0.000000e+00 2.335038e+01
    endloop
  endfacet
  facet normal -9.283679e-01 0.000000e+00 3.716625e-01
    outer loop
      vertex   2.294981e+01 2.000000e+00 2.335038e+01
      vertex   2.294981e+01 0.000000e+00 2.335038e+01
      vertex   2.320417e+01 2.000000e+00 2.398576e+01
    endloop
  endfacet
  facet normal -9.283679e-01 0.000000e+00 3.716625e-01
    outer loop
      vertex   2.320417e+01 2.000000e+00 2.398576e+01
      vertex   2.294981e+01 0.000000e+00 2.335038e+01
      vertex   2.320417e+01 0.000000e+00 2.398576e+01
    endloop
  endfacet
  facet normal -9.819287e-01 0.000000e+00 1.892512e-01
    outer loop
      vertex   2.320417e+01 2.000000e+00 2.398576e+01
      vertex   2.320417e+01 0.000000e+00 2.398576e+01
      vertex   2.333370e+01 2.000000e+00 2.465780e+01
    endloop
  endfacet
  facet normal -9.819287e-01 0.000000e+00 1.892512e-01
    outer loop
      vertex   2.333370e+01 2.000000e+00 2.465780e+01
      vertex   2.320417e+01 0.000000e+00 2.398576e+01
      vertex   2.333370e+01 0.000000e+00 2.465780e+01
    endloop
  endfacet
  facet normal -1.000000e+00 0.000000e+00 0.000000e+00
    outer loop
      vertex   2.333370e+01 2.000000e+00 2.465780e+01
      vertex   2.333370e+01 0.000000e+00 2.465780e+01
      vertex   2.333370e+01 2.000000e+00 2.534220e+01
    endloop
  endfacet
  facet normal -1.000000e+00 -0.000000e+00 0.000000e+00
    outer loop
      vertex   2.333370e+01 2.000000e+00 2.534220e+01
      vertex   2.333370e+01 0.000000e+00 2.465780e+01
      vertex   2.333370e+01 0.000000e+00 2.534220e+01
    endloop
  endfacet
  facet normal -9.819287e-01 -0.000000e+00 -1.892512e-01
    outer loop
      vertex   2.333370e+01 2.000000e+00 2.534220e+01
      vertex   2.333370e+01 0.000000e+00 2.534220e+01
      vertex   2.320417e+01 2.000000e+00 2.601424e+01
    endloop
  endfacet
  facet normal -9.819287e-01 -0.000000e+00 -1.892512e-01
    outer loop
      vertex   2.320417e+01 2.000000e+00 2.601424e+01
      vertex   2.333370e+01 0.000000e+00 2.534220e+01
      vertex   2.320417e+01 0.000000e+00 2.601424e+01
    endloop
  endfacet
  facet normal -9.283679e-01 -0.000000e+00 -3.716625e-01
    outer loop
      vertex   2.320417e+01 2.000000e+00 2.601424e+01
      vertex   2.320417e+01 0.000000e+00 2.601424e+01
      vertex   2.294981e+01 2.000000e+00 2.664962e+01
    endloop
  endfacet
  facet normal -9.283679e-01 -0.000000e+00 -3.716625e-01
    outer loop
      vertex   2.294981e+01 2.000000e+00 2.664962e+01
      vertex   2.320417e+01 0.000000e+00 2.601424e+01
      vertex   2.294981e+01 0.000000e+00 2.664962e+01
    endloop
  endfacet
  facet normal -8.412535e-01 -0.000000e+00 -5.406408e-01
    outer loop
      vertex   2.294981e+01 2.000000e+00 2.664962e+01
      vertex   2.294981e+01 0.000000e+00 2.664962e+01
      vertex   2.257979e+01 2.000000e+00 2.722537e+01
    endloop
  endfacet
  facet normal -8.412535e-01 -0.000000e+00 -5.406408e-01
    outer loop
      vertex   2.257979e+01 2.000000e+00 2.722537e+01
      vertex   2.294981e+01 0.000000e+00 2.664962e+01
      vertex   2.257979e+01 0.000000e+00 2.722537e+01
    endloop
  endfacet
  facet normal -7.237340e-01 -0.000000e+00 -6.900790e-01
    outer loop
      vertex   2.257979e+01 2.000000e+00 2.722537e+01
      vertex   2.257979e+01 0.000000e+00 2.722537e+01
      vertex   2.210750e+01 2.000000e+00 2.772070e+01
    endloop
  endfacet
  facet normal -7.237340e-01 -0.000000e+00 -6.900790e-01
    outer loop
      vertex   2.210750e+01 2.000000e+00 2.772070e+01
      vertex   2.257979e+01 0.000000e+00 2.722537e+01
      vertex   2.210750e+01 0.000000e+00 2.772070e+01
    endloop
  endfacet
  facet normal -5.800569e-01 -0.000000e+00 -8.145760e-01
    outer loop
      vertex   2.210750e+01 2.000000e+00 2.772070e+01
      vertex   2.210750e+01 0.000000e+00 2.772070e+01
      vertex   2.155000e+01 2.000000e+00 2.811769e+01
    endloop
  endfacet
  facet normal -5.800569e-01 -0.000000e+00 -8.145760e-01
    outer loop
      vertex   2.155000e+01 2.000000e+00 2.811769e+01
      vertex   2.210750e+01 0.000000e+00 2.772070e+01
      vertex   2.155000e+01 0.000000e+00 2.811769e+01
    endloop
  endfacet
  facet normal -4.154150e-01 -0.000000e+00 -9.096320e-01
    outer loop
      vertex   2.155000e+01 2.000000e+00 2.811769e+01
      vertex   2.155000e+01 0.000000e+00 2.811769e+01
      vertex   2.092744e+01 2.000000e+00 2.840200e+01
    endloop
  endfacet
  facet normal -4.154150e-01 -0.000000e+00 -9.096320e-01
    outer loop
      vertex   2.092744e+01 2.000000e+00 2.840200e+01
      vertex   2.155000e+01 0.000000e+00 2.811769e+01
      vertex   2.092744e+01 0.000000e+00 2.840200e+01
    endloop
  endfacet
  facet normal -2.357589e-01 -0.000000e+00 -9.718116e-01
    outer loop
      vertex   2.092744e+01 2.000000e+00 2.840200e+01
      vertex   2.092744e+01 0.000000e+00 2.840200e+01
      vertex   2.026233e+01 2.000000e+00 2.856336e+01
    endloop
  endfacet
  facet normal -2.357589e-01 -0.000000e+00 -9.718116e-01
    outer loop
      vertex   2.026233e+01 2.000000e+00 2.856336e+01
      vertex   2.092744e+01 0.000000e+00 2.840200e+01
      vertex   2.026233e+01 0.000000e+00 2.856336e+01
    endloop
  endfacet
  facet normal -4.758192e-02 -0.000000e+00 -9.988673e-01
    outer loop
      vertex   2.026233e+01 2.000000e+00 2.856336e+01
      vertex   2.026233e+01 0.000000e+00 2.856336e+01
      vertex   1.957871e+01 2.000000e+00 2.859592e+01
    endloop
  endfacet
  facet normal -4.758192e-02 -0.000000e+00 -9.988673e-01
    outer loop
      vertex   1.957871e+01 2.000000e+00 2.859592e+01
      vertex   2.026233e+01 0.000000e+00 2.856336e+01
      vertex   1.957871e+01 0.000000e+00 2.859592e+01
    endloop
  endfacet
  facet normal 1.423148e-01 0.000000e+00 -9.898214e-01
    outer loop
      vertex   1.957871e+01 2.000000e+00 2.859592e+01
      vertex   1.957871e+01 0.000000e+00 2.859592e+01
      vertex   1.890127e+01 2.000000e+00 2.849852e+01
    endloop
  endfacet
  facet normal 1.423148e-01 0.000000e+00 -9.898214e-01
    outer loop
      vertex   1.890127e+01 2.000000e+00 2.849852e+01
      vertex   1.957871e+01 0.000000e+00 2.859592e+01
      vertex   1.890127e+01 0.000000e+00 2.849852e+01
    endloop
  endfacet
  facet normal 3.270680e-01 0.000000e+00 -9.450008e-01
    outer loop
      vertex   1.890127e+01 2.000000e+00 2.849852e+01
      vertex   1.890127e+01 0.000000e+00 2.849852e+01
      vertex   1.825451e+01 2.000000e+00 2.827468e+01
    endloop
  endfacet
  facet normal 3.270680e-01 0.000000e+00 -9.450008e-01
    outer loop
      vertex   1.825451e+01 2.000000e+00 2.827468e+01
      vertex   1.890127e+01 0.000000e+00 2.849852e+01
      vertex   1.825451e+01 0.000000e+00 2.827468e+01
    endloop
  endfacet
  facet normal 5.000000e-01 0.000000e+00 -8.660254e-01
    outer loop
      vertex   1.825451e+01 2.000000e+00 2.827468e+01
      vertex   1.825451e+01 0.000000e+00 2.827468e+01
      vertex   1.766180e+01 2.000000e+00 2.793247e+01
    endloop
  endfacet
  facet normal 5.000000e-01 0.000000e+00 -8.660254e-01
    outer loop
      vertex   1.766180e+01 2.000000e+00 2.793247e+01
      vertex   1.825451e+01 0.000000e+00 2.827468e+01
      vertex   1.766180e+01 0.000000e+00 2.793247e+01
    endloop
  endfacet
  facet normal 6.548607e-01 0.000000e+00 -7.557496e-01
    outer loop
      vertex   1.766180e+01 2.000000e+00 2.793247e+01
      vertex   1.766180e+01 0.000000e+00 2.793247e+01
      vertex   1.714456e+01 2.000000e+00 2.748428e+01
    endloop
  endfacet
  facet normal 6.548607e-01 0.000000e+00 -7.557496e-01
    outer loop
      vertex   1.714456e+01 2.000000e+00 2.748428e+01
      vertex   1.766180e+01 0.000000e+00 2.793247e+01
      vertex   1.714456e+01 0.000000e+00 2.748428e+01
    endloop
  endfacet
  facet normal 7.860531e-01 0.000000e+00 -6.181590e-01
    outer loop
      vertex   1.714456e+01 2.000000e+00 2.748428e+01
      vertex   1.714456e+01 0.000000e+00 2.748428e+01
      vertex   1.672149e+01 2.000000e+00 2.694631e+01
    endloop
  endfacet
  facet normal 7.860531e-01 0.000000e+00 -6.181590e-01
    outer loop
      vertex   1.672149e+01 2.000000e+00 2.694631e+01
      vertex   1.714456e+01 0.000000e+00 2.748428e+01
      vertex   1.672149e+01 0.000000e+00 2.694631e+01
    endloop
  endfacet
  facet normal 8.888354e-01 0.000000e+00 -4.582265e-01
    outer loop
      vertex   1.672149e+01 2.000000e+00 2.694631e+01
      vertex   1.672149e+01 0.000000e+00 2.694631e+01
      vertex   1.640788e+01 2.000000e+00 2.633798e+01
    endloop
  endfacet
  facet normal 8.888354e-01 0.000000e+00 -4.582265e-01
    outer loop
      vertex   1.640788e+01 2.000000e+00 2.633798e+01
      vertex   1.672149e+01 0.000000e+00 2.694631e+01
      vertex   1.640788e+01 0.000000e+00 2.633798e+01
    endloop
  endfacet
  facet normal 9.594930e-01 0.000000e+00 -2.817326e-01
    outer loop
      vertex   1.640788e+01 2.000000e+00 2.633798e+01
      vertex   1.640788e+01 0.000000e+00 2.633798e+01
      vertex   1.621506e+01 2.000000e+00 2.568130e+01
    endloop
  endfacet
  facet normal 9.594930e-01 0.000000e+00 -2.817326e-01
    outer loop
      vertex   1.621506e+01 2.000000e+00 2.568130e+01
      vertex   1.640788e+01 0.000000e+00 2.633798e+01
      vertex   1.621506e+01 0.000000e+00 2.568130e+01
    endloop
  endfacet
  facet normal -1.000000e+00 0.000000e+00 0.000000e+00
    outer loop
      vertex   8.500000e+01 0.000000e+00 1.175000e+01
      vertex   8.500000e+01 0.000000e+00 3.825000e+01
      vertex   8.500000e+01 2.000000e+00 1.175000e+01
    endloop
  endfacet
  facet normal -1.000000e+00 0.000000e+00 0.000000e+00
    outer loop
      vertex   8.500000e+01 2.000000e+00 1.175000e+01
      vertex   8.500000e+01 0.000000e+00 3.825000e+01
      vertex   8.500000e+01 2.000000e+00 3.825000e+01
    endloop
  endfacet
  facet normal 0.000000e+00 0.000000e+00 1.000000e+00
    outer loop
      vertex   3.950000e+01 0.000000e+00 1.175000e+01
      vertex   8.500000e+01 0.000000e+00 1.175000e+01
      vertex   3.950000e+01 2.000000e+00 1.175000e+01
    endloop
  endfacet
  facet normal -0.000000e+00 0.000000e+00 1.000000e+00
    outer loop
      vertex   3.950000e+01 2.000000e+00 1.175000e+01
      vertex   8.500000e+01 0.000000e+00 1.175000e+01
      vertex   8.500000e+01 2.000000e+00 1.175000e+01
    endloop
  endfacet
  facet normal 1.000000e+00 -0.000000e+00 0.000000e+00
    outer loop
      vertex   3.950000e+01 0.000000e+00 3.825000e+01
      vertex   3.950000e+01 0.000000e+00 1.175000e+01
      vertex   3.950000e+01 2.000000e+00 3.825000e+01
    endloop
  endfacet
  facet normal 1.000000e+00 0.000000e+00 0.000000e+00
    outer loop
      vertex   3.950000e+01 2.000000e+00 3.825000e+01
      vertex   3.950000e+01 0.000000e+00 1.175000e+01
      vertex   3.950000e+01 2.000000e+00 1.175000e+01
    endloop
  endfacet
  facet normal 1.561632e-16 0.000000e+00 -1.000000e+00
    outer loop
      vertex   8.500000e+01 0.000000e+00 3.825000e+01
      vertex   3.950000e+01 0.000000e+00 3.825000e+01
      vertex   8.500000e+01 2.000000e+00 3.825000e+01
    endloop
  endfacet
  facet normal 1.561632e-16 0.000000e+00 -1.000000e+00
    outer loop
      vertex   8.500000e+01 2.000000e+00 3.825000e+01
      vertex   3.950000e+01 0.000000e+00 3.825000e+01
      vertex   3.950000e+01 2.000000e+00 3.825000e+01
    endloop
  endfacet
  facet normal -1.000000e+00 -1.232595e-31 5.135813e-33
    outer loop
      vertex   2.465190e-31 0.000000e+00 5.000000e+01
      vertex   0.000000e+00 2.000000e+00 5.000000e+01
      vertex   0.000000e+00 0.000000e+00 2.000000e+00
    endloop
  endfacet
  facet normal -1.000000e+00 0.000000e+00 0.000000e+00
    outer loop
      vertex   0.000000e+00 0.000000e+00 2.000000e+00
      vertex   0.000000e+00 2.000000e+00 5.000000e+01
      vertex   0.000000e+00 2.000000e+00 0.000000e+00
    endloop
  endfacet
  facet normal -1.000000e+00 0.000000e+00 -0.000000e+00
    outer loop
      vertex   0.000000e+00 0.000000e+00 2.000000e+00
      vertex   0.000000e+00 2.000000e+00 0.000000e+00
      vertex   0.000000e+00 -2.800000e+01 0.000000e+00
    endloop
  endfacet
  facet normal -1.000000e+00 0.000000e+00 0.000000e+00
    outer loop
      vertex   0.000000e+00 -2.800000e+01 0.000000e+00
      vertex   0.000000e+00 -2.800000e+01 2.000000e+00
      vertex   0.000000e+00 0.000000e+00 2.000000e+00
    endloop
  endfacet
  facet normal 0.000000e+00 0.000000e+00 -1.000000e+00
    outer loop
      vertex   0.000000e+00 2.000000e+00 0.000000e+00
      vertex   9.000000e+01 2.000000e+00 0.000000e+00
      vertex   0.000000e+00 -2.800000e+01 0.000000e+00
    endloop
  endfacet
  facet normal 0.000000e+00 0.000000e+00 -1.000000e+00
    outer loop
      vertex   0.000000e+00 -2.800000e+01 0.000000e+00
      vertex   9.000000e+01 2.000000e+00 0.000000e+00
      vertex   9.000000e+01 -2.800000e+01 0.000000e+00
    endloop
  endfacet
  facet normal 1.000000e+00 -0.000000e+00 0.000000e+00
    outer loop
      vertex   9.000000e+01 -2.800000e+01 2.000000e+00
      vertex   9.000000e+01 -2.800000e+01 0.000000e+00
      vertex   9.000000e+01 0.000000e+00 2.000000e+00
    endloop
  endfacet
  facet normal 1.000000e+00 0.000000e+00 0.000000e+00
    outer loop
      vertex   9.000000e+01 0.000000e+00 2.000000e+00
      vertex   9.000000e+01 -2.800000e+01 0.000000e+00
      vertex   9.000000e+01 2.000000e+00 0.000000e+00
    endloop
  endfacet
  facet normal 1.000000e+00 -0.000000e+00 0.000000e+00
    outer loop
      vertex   9.000000e+01 0.000000e+00 2.000000e+00
      vertex   9.000000e+01 2.000000e+00 0.000000e+00
      vertex   9.000000e+01 2.000000e+00 5.000000e+01
    endloop
  endfacet
  facet normal 1.000000e+00 0.000000e+00 0.000000e+00
    outer loop
      vertex   9.000000e+01 2.000000e+00 5.000000e+01
      vertex   9.000000e+01 0.000000e+00 5.000000e+01
      vertex   9.000000e+01 0.000000e+00 2.000000e+00
    endloop
  endfacet
  facet normal 0.000000e+00 -0.000000e+00 1.000000e+00
    outer loop
      vertex   2.465190e-31 0.000000e+00 5.000000e+01
      vertex   9.000000e+01 0.000000e+00 5.000000e+01
      vertex   0.000000e+00 2.000000e+00 5.000000e+01
    endloop
  endfacet
  facet normal -0.000000e+00 0.000000e+00 1.000000e+00
    outer loop
      vertex   0.000000e+00 2.000000e+00 5.000000e+01
      vertex   9.000000e+01 0.000000e+00 5.000000e+01
      vertex   9.000000e+01 2.000000e+00 5.000000e+01
    endloop
  endfacet
  facet normal 0.000000e+00 1.000000e+00 0.000000e+00
    outer loop
      vertex   8.500000e+01 2.000000e+00 1.175000e+01
      vertex   8.500000e+01 2.000000e+00 3.825000e+01
      vertex   9.000000e+01 2.000000e+00 5.000000e+01
    endloop
  endfacet
  facet normal 0.000000e+00 1.000000e+00 0.000000e+00
    outer loop
      vertex   9.000000e+01 2.000000e+00 5.000000e+01
      vertex   8.500000e+01 2.000000e+00 3.825000e+01
      vertex   3.950000e+01 2.000000e+00 3.825000e+01
    endloop
  endfacet
  facet normal 0.000000e+00 1.000000e+00 0.000000e+00
    outer loop
      vertex   9.000000e+01 2.000000e+00 5.000000e+01
      vertex   3.950000e+01 2.000000e+00 3.825000e+01
      vertex   0.000000e+00 2.000000e+00 5.000000e+01
    endloop
  endfacet
  facet normal 0.000000e+00 1.000000e+00 0.000000e+00
    outer loop
      vertex   0.000000e+00 2.000000e+00 5.000000e+01
      vertex   3.950000e+01 2.000000e+00 3.825000e+01
      vertex   1.957871e+01 2.000000e+00 2.859592e+01
    endloop
  endfacet
  facet normal 0.000000e+00 1.000000e+00 0.000000e+00
    outer loop
      vertex   0.000000e+00 2.000000e+00 5.000000e+01
      vertex   1.957871e+01 2.000000e+00 2.859592e+01
      vertex   1.890127e+01 2.000000e+00 2.849852e+01
    endloop
  endfacet
  facet normal 0.000000e+00 1.000000e+00 -0.000000e+00
    outer loop
      vertex   3.950000e+01 2.000000e+00 1.175000e+01
      vertex   2.333370e+01 2.000000e+00 2.465780e+01
      vertex   3.950000e+01 2.000000e+00 3.825000e+01
    endloop
  endfacet
  facet normal 0.000000e+00 1.000000e+00 0.000000e+00
    outer loop
      vertex   3.950000e+01 2.000000e+00 3.825000e+01
      vertex   2.333370e+01 2.000000e+00 2.465780e+01
      vertex   2.333370e+01 2.000000e+00 2.534220e+01
    endloop
  endfacet
  facet normal 0.000000e+00 1.000000e+00 0.000000e+00
    outer loop
      vertex   3.950000e+01 2.000000e+00 3.825000e+01
      vertex   2.333370e+01 2.000000e+00 2.534220e+01
      vertex   2.320417e+01 2.000000e+00 2.601424e+01
    endloop
  endfacet
  facet normal 0.000000e+00 1.000000e+00 0.000000e+00
    outer loop
      vertex   8.500000e+01 2.000000e+00 1.175000e+01
      vertex   9.000000e+01 2.000000e+00 0.000000e+00
      vertex   3.950000e+01 2.000000e+00 1.175000e+01
    endloop
  endfacet
  facet normal 0.000000e+00 1.000000e+00 0.000000e+00
    outer loop
      vertex   3.950000e+01 2.000000e+00 1.175000e+01
      vertex   9.000000e+01 2.000000e+00 0.000000e+00
      vertex   0.000000e+00 2.000000e+00 0.000000e+00
    endloop
  endfacet
  facet normal 0.000000e+00 1.000000e+00 0.000000e+00
    outer loop
      vertex   3.950000e+01 2.000000e+00 1.175000e+01
      vertex   0.000000e+00 2.000000e+00 0.000000e+00
      vertex   1.957871e+01 2.000000e+00 2.140408e+01
    endloop
  endfacet
  facet normal 0.000000e+00 1.000000e+00 0.000000e+00
    outer loop
      vertex   1.957871e+01 2.000000e+00 2.140408e+01
      vertex   0.000000e+00 2.000000e+00 0.000000e+00
      vertex   1.890127e+01 2.000000e+00 2.150148e+01
    endloop
  endfacet
  facet normal 0.000000e+00 1.000000e+00 0.000000e+00
    outer loop
      vertex   1.890127e+01 2.000000e+00 2.150148e+01
      vertex   0.000000e+00 2.000000e+00 0.000000e+00
      vertex   1.825451e+01 2.000000e+00 2.172532e+01
    endloop
  endfacet
  facet normal 0.000000e+00 1.000000e+00 0.000000e+00
    outer loop
      vertex   1.825451e+01 2.000000e+00 2.172532e+01
      vertex   0.000000e+00 2.000000e+00 0.000000e+00
      vertex   1.766180e+01 2.000000e+00 2.206753e+01
    endloop
  endfacet
  facet normal 0.000000e+00 1.000000e+00 0.000000e+00
    outer loop
      vertex   1.766180e+01 2.000000e+00 2.206753e+01
      vertex   0.000000e+00 2.000000e+00 0.000000e+00
      vertex   1.714456e+01 2.000000e+00 2.251572e+01
    endloop
  endfacet
  facet normal 0.000000e+00 1.000000e+00 0.000000e+00
    outer loop
      vertex   1.714456e+01 2.000000e+00 2.251572e+01
      vertex   0.000000e+00 2.000000e+00 0.000000e+00
      vertex   1.672149e+01 2.000000e+00 2.305369e+01
    endloop
  endfacet
  facet normal 0.000000e+00 1.000000e+00 0.000000e+00
    outer loop
      vertex   1.672149e+01 2.000000e+00 2.305369e+01
      vertex   0.000000e+00 2.000000e+00 0.000000e+00
      vertex   1.640788e+01 2.000000e+00 2.366202e+01
    endloop
  endfacet
  facet normal 0.000000e+00 1.000000e+00 0.000000e+00
    outer loop
      vertex   1.640788e+01 2.000000e+00 2.366202e+01
      vertex   0.000000e+00 2.000000e+00 0.000000e+00
      vertex   1.621506e+01 2.000000e+00 2.431870e+01
    endloop
  endfacet
  facet normal 0.000000e+00 1.000000e+00 0.000000e+00
    outer loop
      vertex   1.621506e+01 2.000000e+00 2.431870e+01
      vertex   0.000000e+00 2.000000e+00 0.000000e+00
      vertex   1.615000e+01 2.000000e+00 2.500000e+01
    endloop
  endfacet
  facet normal 0.000000e+00 1.000000e+00 0.000000e+00
    outer loop
      vertex   1.615000e+01 2.000000e+00 2.500000e+01
      vertex   0.000000e+00 2.000000e+00 0.000000e+00
      vertex   0.000000e+00 2.000000e+00 5.000000e+01
    endloop
  endfacet
  facet normal 0.000000e+00 1.000000e+00 -0.000000e+00
    outer loop
      vertex   1.615000e+01 2.000000e+00 2.500000e+01
      vertex   0.000000e+00 2.000000e+00 5.000000e+01
      vertex   1.621506e+01 2.000000e+00 2.568130e+01
    endloop
  endfacet
  facet normal 0.000000e+00 1.000000e+00 -0.000000e+00
    outer loop
      vertex   1.621506e+01 2.000000e+00 2.568130e+01
      vertex   0.000000e+00 2.000000e+00 5.000000e+01
      vertex   1.640788e+01 2.000000e+00 2.633798e+01
    endloop
  endfacet
  facet normal 0.000000e+00 1.000000e+00 -0.000000e+00
    outer loop
      vertex   1.640788e+01 2.000000e+00 2.633798e+01
      vertex   0.000000e+00 2.000000e+00 5.000000e+01
      vertex   1.672149e+01 2.000000e+00 2.694631e+01
    endloop
  endfacet
  facet normal 0.000000e+00 1.000000e+00 -0.000000e+00
    outer loop
      vertex   1.672149e+01 2.000000e+00 2.694631e+01
      vertex   0.000000e+00 2.000000e+00 5.000000e+01
      vertex   1.714456e+01 2.000000e+00 2.748428e+01
    endloop
  endfacet
  facet normal 0.000000e+00 1.000000e+00 -0.000000e+00
    outer loop
      vertex   1.714456e+01 2.000000e+00 2.748428e+01
      vertex   0.000000e+00 2.000000e+00 5.000000e+01
      vertex   1.766180e+01 2.000000e+00 2.793247e+01
    endloop
  endfacet
  facet normal 0.000000e+00 1.000000e+00 -0.000000e+00
    outer loop
      vertex   1.766180e+01 2.000000e+00 2.793247e+01
      vertex   0.000000e+00 2.000000e+00 5.000000e+01
      vertex   1.825451e+01 2.000000e+00 2.827468e+01
    endloop
  endfacet
  facet normal 0.000000e+00 1.000000e+00 -0.000000e+00
    outer loop
      vertex   1.825451e+01 2.000000e+00 2.827468e+01
      vertex   0.000000e+00 2.000000e+00 5.000000e+01
      vertex   1.890127e+01 2.000000e+00 2.849852e+01
    endloop
  endfacet
  facet normal 0.000000e+00 1.000000e+00 -0.000000e+00
    outer loop
      vertex   9.000000e+01 2.000000e+00 0.000000e+00
      vertex   8.500000e+01 2.000000e+00 1.175000e+01
      vertex   9.000000e+01 2.000000e+00 5.000000e+01
    endloop
  endfacet
  facet normal -0.000000e+00 1.000000e+00 0.000000e+00
    outer loop
      vertex   1.957871e+01 2.000000e+00 2.140408e+01
      vertex   2.026233e+01 2.000000e+00 2.143664e+01
      vertex   3.950000e+01 2.000000e+00 1.175000e+01
    endloop
  endfacet
  facet normal 0.000000e+00 1.000000e+00 0.000000e+00
    outer loop
      vertex   3.950000e+01 2.000000e+00 1.175000e+01
      vertex   2.026233e+01 2.000000e+00 2.143664e+01
      vertex   2.092744e+01 2.000000e+00 2.159800e+01
    endloop
  endfacet
  facet normal 0.000000e+00 1.000000e+00 0.000000e+00
    outer loop
      vertex   3.950000e+01 2.000000e+00 1.175000e+01
      vertex   2.092744e+01 2.000000e+00 2.159800e+01
      vertex   2.155000e+01 2.000000e+00 2.188231e+01
    endloop
  endfacet
  facet normal -0.000000e+00 1.000000e+00 0.000000e+00
    outer loop
      vertex   2.155000e+01 2.000000e+00 2.188231e+01
      vertex   2.210750e+01 2.000000e+00 2.227930e+01
      vertex   3.950000e+01 2.000000e+00 1.175000e+01
    endloop
  endfacet
  facet normal 0.000000e+00 1.000000e+00 0.000000e+00
    outer loop
      vertex   3.950000e+01 2.000000e+00 1.175000e+01
      vertex   2.210750e+01 2.000000e+00 2.227930e+01
      vertex   2.257979e+01 2.000000e+00 2.277463e+01
    endloop
  endfacet
  facet normal 0.000000e+00 1.000000e+00 0.000000e+00
    outer loop
      vertex   3.950000e+01 2.000000e+00 1.175000e+01
      vertex   2.257979e+01 2.000000e+00 2.277463e+01
      vertex   2.294981e+01 2.000000e+00 2.335038e+01
    endloop
  endfacet
  facet normal -0.000000e+00 1.000000e+00 0.000000e+00
    outer loop
      vertex   2.294981e+01 2.000000e+00 2.335038e+01
      vertex   2.320417e+01 2.000000e+00 2.398576e+01
      vertex   3.950000e+01 2.000000e+00 1.175000e+01
    endloop
  endfacet
  facet normal 0.000000e+00 1.000000e+00 0.000000e+00
    outer loop
      vertex   3.950000e+01 2.000000e+00 1.175000e+01
      vertex   2.320417e+01 2.000000e+00 2.398576e+01
      vertex   2.333370e+01 2.000000e+00 2.465780e+01
    endloop
  endfacet
  facet normal 0.000000e+00 1.000000e+00 -0.000000e+00
    outer loop
      vertex   2.320417e+01 2.000000e+00 2.601424e+01
      vertex   2.294981e+01 2.000000e+00 2.664962e+01
      vertex   3.950000e+01 2.000000e+00 3.825000e+01
    endloop
  endfacet
  facet normal 0.000000e+00 1.000000e+00 0.000000e+00
    outer loop
      vertex   3.950000e+01 2.000000e+00 3.825000e+01
      vertex   2.294981e+01 2.000000e+00 2.664962e+01
      vertex   2.257979e+01 2.000000e+00 2.722537e+01
    endloop
  endfacet
  facet normal 0.000000e+00 1.000000e+00 0.000000e+00
    outer loop
      vertex   3.950000e+01 2.000000e+00 3.825000e+01
      vertex   2.257979e+01 2.000000e+00 2.722537e+01
      vertex   2.210750e+01 2.000000e+00 2.772070e+01
    endloop
  endfacet
  facet normal 0.000000e+00 1.000000e+00 -0.000000e+00
    outer loop
      vertex   2.210750e+01 2.000000e+00 2.772070e+01
      vertex   2.155000e+01 2.000000e+00 2.811769e+01
      vertex   3.950000e+01 2.000000e+00 3.825000e+01
    endloop
  endfacet
  facet normal 0.000000e+00 1.000000e+00 0.000000e+00
    outer loop
      vertex   3.950000e+01 2.000000e+00 3.825000e+01
      vertex   2.155000e+01 2.000000e+00 2.811769e+01
      vertex   2.092744e+01 2.000000e+00 2.840200e+01
    endloop
  endfacet
  facet normal 0.000000e+00 1.000000e+00 0.000000e+00
    outer loop
      vertex   3.950000e+01 2.000000e+00 3.825000e+01
      vertex   2.092744e+01 2.000000e+00 2.840200e+01
      vertex   2.026233e+01 2.000000e+00 2.856336e+01
    endloop
  endfacet
  facet normal 0.000000e+00 1.000000e+00 -0.000000e+00
    outer loop
      vertex   2.026233e+01 2.000000e+00 2.856336e+01
      vertex   1.957871e+01 2.000000e+00 2.859592e+01
      vertex   3.950000e+01 2.000000e+00 3.825000e+01
    endloop
  endfacet
endsolid
